<?xml version="1.0" encoding="UTF-8" standalone="no"?>
<!-- Created with Inkscape (http://www.inkscape.org/) -->

<svg
   xmlns:dc="http://purl.org/dc/elements/1.1/"
   xmlns:cc="http://creativecommons.org/ns#"
   xmlns:rdf="http://www.w3.org/1999/02/22-rdf-syntax-ns#"
   xmlns:svg="http://www.w3.org/2000/svg"
   xmlns="http://www.w3.org/2000/svg"
   xmlns:sodipodi="http://sodipodi.sourceforge.net/DTD/sodipodi-0.dtd"
   xmlns:inkscape="http://www.inkscape.org/namespaces/inkscape"
   id="svg2"
   version="1.1"
   inkscape:version="0.48.5 r10040"
   width="743.75"
   height="1052.5"
   xml:space="preserve"
   sodipodi:docname="gp2y0a02yk_graph_20-150.svg"><metadata
     id="metadata8"><rdf:RDF><cc:Work
         rdf:about=""><dc:format>image/svg+xml</dc:format><dc:type
           rdf:resource="http://purl.org/dc/dcmitype/StillImage" /></cc:Work></rdf:RDF></metadata><defs
     id="defs6"><clipPath
       clipPathUnits="userSpaceOnUse"
       id="clipPath46"><path
         d="m 1240.78,6397.86 2520.53,0 0,-1867.32 -2520.53,0 0,1867.32 z"
         clip-rule="evenodd"
         id="path48" /></clipPath><clipPath
       clipPathUnits="userSpaceOnUse"
       id="clipPath52"><path
         d="m 1894.52,6258.73 1837.74,0 0,-329.53 -1830.48,0 0,322.21 -7.26,7.32 z m 2055.54,659.05 -3188.689,0 0,-2893.98 3188.689,0 0,2893.98 z"
         clip-rule="evenodd"
         id="path54" /></clipPath><clipPath
       clipPathUnits="userSpaceOnUse"
       id="clipPath62"><path
         d="m 1211.72,6368.57 2578.64,0 0,-1808.74 -2578.64,0 0,1808.74 z"
         clip-rule="evenodd"
         id="path64" /></clipPath><clipPath
       clipPathUnits="userSpaceOnUse"
       id="clipPath68"><path
         d="m 1894.52,6258.73 1837.74,0 0,-329.53 -1830.48,0 0,322.21 -7.26,7.32 z m 2055.54,659.05 -3188.689,0 0,-2893.98 3188.689,0 0,2893.98 z"
         clip-rule="evenodd"
         id="path70" /></clipPath><clipPath
       clipPathUnits="userSpaceOnUse"
       id="clipPath78"><path
         d="m 761.371,6917.78 3188.799,0 0,-2870.55 -3188.799,0 0,2870.55 z"
         clip-rule="evenodd"
         id="path80" /></clipPath><clipPath
       clipPathUnits="userSpaceOnUse"
       id="clipPath84"><path
         d="m 1894.52,6258.73 1837.74,0 0,-329.53 -1830.48,0 0,322.21 -7.26,7.32 z m 2055.54,659.05 -3188.689,0 0,-2893.98 3188.689,0 0,2893.98 z"
         clip-rule="evenodd"
         id="path86" /></clipPath><clipPath
       clipPathUnits="userSpaceOnUse"
       id="clipPath94"><path
         d="m 761.371,4047.23 3188.8,0 0,2870.55 -3188.8,0 0,-2870.55 z"
         clip-rule="evenodd"
         id="path96" /></clipPath><clipPath
       clipPathUnits="userSpaceOnUse"
       id="clipPath310"><path
         d="m 1218.99,4537.87 2571.37,0 0,1852.67 -2571.37,0 0,-1852.67 z"
         clip-rule="evenodd"
         id="path312" /></clipPath><clipPath
       clipPathUnits="userSpaceOnUse"
       id="clipPath386"><path
         d="m 1218.99,4537.87 2571.37,0 0,1852.67 -2571.37,0 0,-1852.67 z"
         clip-rule="evenodd"
         id="path388" /></clipPath><clipPath
       clipPathUnits="userSpaceOnUse"
       id="clipPath396"><path
         d="m 761.371,4047.23 3188.8,0 0,2870.55 -3188.8,0 0,-2870.55 z"
         clip-rule="evenodd"
         id="path398" /></clipPath><clipPath
       clipPathUnits="userSpaceOnUse"
       id="clipPath424"><path
         d="m 1814.62,4164.4 1372.85,0 0,168.434 -1372.85,0 0,-168.434 z"
         clip-rule="evenodd"
         id="path426" /></clipPath><clipPath
       clipPathUnits="userSpaceOnUse"
       id="clipPath438"><path
         d="m 877.59,5087.08 167.059,0 0,754.254 -167.059,0 0,-754.254 z"
         clip-rule="evenodd"
         id="path440" /></clipPath><clipPath
       clipPathUnits="userSpaceOnUse"
       id="clipPath452"><path
         d="m 761.371,4047.23 3188.8,0 0,2870.55 -3188.8,0 0,-2870.55 z"
         clip-rule="evenodd"
         id="path454" /></clipPath><clipPath
       clipPathUnits="userSpaceOnUse"
       id="clipPath470"><path
         d="m 1909.04,5936.52 1815.95,0 0,307.563 -1815.95,0 0,-307.563 z"
         clip-rule="evenodd"
         id="path472" /></clipPath><clipPath
       clipPathUnits="userSpaceOnUse"
       id="clipPath500"><path
         d="m 1909.04,5936.52 1815.95,0 0,307.563 -1815.95,0 0,-307.563 z"
         clip-rule="evenodd"
         id="path502" /></clipPath><clipPath
       clipPathUnits="userSpaceOnUse"
       id="clipPath516"><path
         d="m 1240.78,3511.82 2535.06,0 0,-1881.98 -2535.06,0 0,1881.98 z"
         clip-rule="evenodd"
         id="path518" /></clipPath><clipPath
       clipPathUnits="userSpaceOnUse"
       id="clipPath522"><path
         d="m 1865.47,2149.77 1837.73,0 0,-329.53 -1830.47,0 0,322.2 -7.26,7.33 z m 2106.42,1881.97 -3210.519,0 0,-2908.57 3210.519,0 0,2908.57 z"
         clip-rule="evenodd"
         id="path524" /></clipPath><clipPath
       clipPathUnits="userSpaceOnUse"
       id="clipPath532"><path
         d="m 1211.72,3482.52 2593.17,0 0,-1823.38 -2593.17,0 0,1823.38 z"
         clip-rule="evenodd"
         id="path534" /></clipPath><clipPath
       clipPathUnits="userSpaceOnUse"
       id="clipPath538"><path
         d="m 1865.47,2149.77 1837.73,0 0,-329.53 -1830.47,0 0,322.2 -7.26,7.33 z m 2106.42,1881.97 -3210.519,0 0,-2908.57 3210.519,0 0,2908.57 z"
         clip-rule="evenodd"
         id="path540" /></clipPath><clipPath
       clipPathUnits="userSpaceOnUse"
       id="clipPath548"><path
         d="m 761.371,4031.74 3210.589,0 0,-2885.2 -3210.589,0 0,2885.2 z"
         clip-rule="evenodd"
         id="path550" /></clipPath><clipPath
       clipPathUnits="userSpaceOnUse"
       id="clipPath554"><path
         d="m 1865.47,2149.77 1837.73,0 0,-329.53 -1830.47,0 0,322.2 -7.26,7.33 z m 2106.42,1881.97 -3210.519,0 0,-2908.57 3210.519,0 0,2908.57 z"
         clip-rule="evenodd"
         id="path556" /></clipPath><clipPath
       clipPathUnits="userSpaceOnUse"
       id="clipPath564"><path
         d="m 761.371,1146.54 3210.59,0 0,2885.2 -3210.59,0 0,-2885.2 z"
         clip-rule="evenodd"
         id="path566" /></clipPath><clipPath
       clipPathUnits="userSpaceOnUse"
       id="clipPath784"><path
         d="m 761.371,1146.54 3210.59,0 0,2885.2 -3210.59,0 0,-2885.2 z"
         clip-rule="evenodd"
         id="path786" /></clipPath><clipPath
       clipPathUnits="userSpaceOnUse"
       id="clipPath812"><path
         d="m 1836.41,1263.7 1343.8,0 0,168.43 -1343.8,0 0,-168.43 z"
         clip-rule="evenodd"
         id="path814" /></clipPath><clipPath
       clipPathUnits="userSpaceOnUse"
       id="clipPath826"><path
         d="m 877.59,2193.7 167.059,0 0,754.25 -167.059,0 0,-754.25 z"
         clip-rule="evenodd"
         id="path828" /></clipPath><clipPath
       clipPathUnits="userSpaceOnUse"
       id="clipPath842"><path
         d="m 761.371,1146.54 3210.59,0 0,2885.2 -3210.59,0 0,-2885.2 z"
         clip-rule="evenodd"
         id="path844" /></clipPath><clipPath
       clipPathUnits="userSpaceOnUse"
       id="clipPath858"><path
         d="m 1879.99,1827.56 1815.94,0 0,307.566 -1815.94,0 0,-307.566 z"
         clip-rule="evenodd"
         id="path860" /></clipPath><clipPath
       clipPathUnits="userSpaceOnUse"
       id="clipPath888"><path
         d="m 1879.99,1827.56 1815.94,0 0,307.566 -1815.94,0 0,-307.566 z"
         clip-rule="evenodd"
         id="path890" /></clipPath><clipPath
       clipPathUnits="userSpaceOnUse"
       id="clipPath924"><path
         d="m 2956.1,360 40,0 0,79.6797 -40,0 0,-79.6797 z"
         id="path926" /></clipPath></defs><sodipodi:namedview
     pagecolor="#ffffff"
     bordercolor="#666666"
     borderopacity="1"
     objecttolerance="10"
     gridtolerance="10"
     guidetolerance="10"
     inkscape:pageopacity="0"
     inkscape:pageshadow="2"
     inkscape:window-width="1268"
     inkscape:window-height="751"
     id="namedview4"
     showgrid="false"
     inkscape:zoom="16.295247"
     inkscape:cx="28.39029"
     inkscape:cy="-11.382494"
     inkscape:window-x="0"
     inkscape:window-y="21"
     inkscape:window-maximized="1"
     inkscape:current-layer="g10" /><g
     id="g10"
     inkscape:groupmode="layer"
     inkscape:label="ink_ext_XXXXXX"
     transform="matrix(1.25,0,0,-1.25,0,1052.5)"><path
       d="m 0.366,30.389 253.506,0 M 0.366,61.145 l 253.506,0 M 0.366,91.169 l 253.506,0 m -253.506,30.756 253.506,0 m -253.506,30.024 253.506,0 m -253.506,30.755 253.506,0"
       style="fill:none;stroke:#050100;stroke-width:1.25;stroke-linecap:square;stroke-linejoin:miter;stroke-miterlimit:10;stroke-opacity:1;stroke-dasharray:none"
       id="path526"
       inkscape:connector-curvature="0" /><path
       d="m 12.714,182.704 0,-182.338 m 25.423,182.338 0,-182.338 m 25.424,182.338 0,-182.338 m 25.423,182.338 0,-182.338 m 25.423,182.338 0,-182.338 m 25.424,182.338 0,-182.338 m 25.422,182.338 0,-182.338 m 25.423,182.338 0,-182.338 m 25.424,182.338 0,-182.338 m 25.423,182.338 0,-182.338 m -215.734,182.338 0,-182.338 m 25.423,182.338 0,-182.338 m 25.423,182.338 0,-182.338 m 25.424,182.338 0,-182.338 m 25.423,182.338 0,-182.338 m 24.697,182.338 0,-182.338 m 25.423,182.338 0,-182.338 m 25.423,182.338 0,-182.338 m 25.424,182.338 0,-182.338 m 25.423,182.338 0,-182.338"
       style="fill:none;stroke:#050100;stroke-width:1.25;stroke-linecap:square;stroke-linejoin:miter;stroke-miterlimit:10;stroke-opacity:1;stroke-dasharray:none"
       id="path542"
       inkscape:connector-curvature="0" /><path
       d="m 0.366,182.704 253.506,0 m 0,0 0,-182.338 m 0,0 -253.506,0 m 0,0 0,182.338"
       style="fill:none;stroke:#7e8083;stroke-width:0.73199999;stroke-linecap:square;stroke-linejoin:miter;stroke-miterlimit:10;stroke-opacity:1;stroke-dasharray:none"
       id="path558"
       inkscape:connector-curvature="0" /><path
       inkscape:connector-curvature="0"
       id="path568"
       style="fill:none;stroke:#050100;stroke-width:0.9;stroke-linecap:square;stroke-linejoin:miter;stroke-miterlimit:10;stroke-opacity:1;stroke-dasharray:none"
       d="m 0.366,182.7044 0,-182.338 m 0,0 2.905,0 m -2.905,30.023 2.905,0 m -2.905,30.756 2.905,0 m -2.905,30.024 2.905,0 m -2.905,30.756 2.905,0 m -2.905,30.024 2.905,0 m -2.905,30.755 2.905,0 M 0.366,0.3664 l 253.506,0 m -253.506,0 0,2.929 m 25.423,-2.929 0,2.929 m 25.423,-2.929 0,2.929 m 25.423,-2.929 0,2.929 m 25.424,-2.929 0,2.929 m 25.423,-2.929 0,2.929 m 24.697,-2.929 0,2.929 m 25.423,-2.929 0,2.929 m 25.423,-2.929 0,2.929 m 25.424,-2.929 0,2.929 m 25.423,-2.929 0,2.929" /><path
       inkscape:connector-curvature="0"
       id="path570"
       style="fill:none;stroke:#050100;stroke-width:0.73199999;stroke-linecap:square;stroke-linejoin:miter;stroke-miterlimit:10;stroke-opacity:1;stroke-dasharray:none"
       d="m 253.872,141.697 -84.26,26.361 m 0,0 -42.13,-13.913 m 0,0 -42.856,-32.952 m 0,0 -21.065,-27.827 m 0,0 -12.349,-17.575 m 0,0 -8.716,-11.717 m 0,0 -5.811,-8.787 m 0,0 -4.359,-5.126 m 0,0 -3.632,-5.858 m 0,0 -2.905,-4.394 m 0,0 -2.179,-3.661 m 0,0 -2.179,-2.93 m 0,0 -1.453,-2.929 m 0,0 -1.453,-1.464 m 0,0 -1.453,-2.197" /><path
       inkscape:connector-curvature="0"
       id="path572"
       style="fill:#050100;fill-opacity:1;fill-rule:evenodd;stroke:none"
       d="m 253.872,139.5 -1.454,0.732 0,0.732 1.454,-0.732 0,-0.732" /><path
       inkscape:connector-curvature="0"
       id="path574"
       style="fill:#050100;fill-opacity:1;fill-rule:nonzero;stroke:none"
       d="m 248.061,140.964 1.45195,0 0,0.73281 -1.45195,0 0,-0.73281 z" /><path
       inkscape:connector-curvature="0"
       id="path576"
       style="fill:#050100;fill-opacity:1;fill-rule:nonzero;stroke:none"
       d="m 244.429,142.429 1.45195,0 0,0.73203 -1.45195,0 0,-0.73203 z" /><path
       inkscape:connector-curvature="0"
       id="path578"
       style="fill:#050100;fill-opacity:1;fill-rule:nonzero;stroke:none"
       d="m 240.071,143.893 1.45195,0 0,0.73281 -1.45195,0 0,-0.73281 z" /><path
       inkscape:connector-curvature="0"
       id="path580"
       style="fill:#050100;fill-opacity:1;fill-rule:evenodd;stroke:none"
       d="m 237.165,144.626 -1.453,0.732 0,0.732 1.453,-0.732 0,-0.732" /><path
       inkscape:connector-curvature="0"
       id="path582"
       style="fill:#050100;fill-opacity:1;fill-rule:evenodd;stroke:none"
       d="m 232.081,146.09 -0.727,0.733 0.727,0.732 0.726,-0.732 -0.726,-0.733" /><path
       inkscape:connector-curvature="0"
       id="path584"
       style="fill:#050100;fill-opacity:1;fill-rule:evenodd;stroke:none"
       d="m 229.174,147.555 -1.452,0.732 0,0.732 1.452,-0.732 0,-0.732" /><path
       inkscape:connector-curvature="0"
       id="path586"
       style="fill:#050100;fill-opacity:1;fill-rule:evenodd;stroke:none"
       d="m 224.817,149.019 -1.453,0.733 0,0.732 1.453,-0.732 0,-0.733" /><path
       inkscape:connector-curvature="0"
       id="path588"
       style="fill:#050100;fill-opacity:1;fill-rule:evenodd;stroke:none"
       d="m 220.459,150.484 -1.454,0.732 0,0.733 1.454,-0.733 0,-0.732" /><path
       inkscape:connector-curvature="0"
       id="path590"
       style="fill:#050100;fill-opacity:1;fill-rule:nonzero;stroke:none"
       d="m 215.374,151.949 1.45313,0 0,0.73203 -1.45313,0 0,-0.73203 z" /><path
       inkscape:connector-curvature="0"
       id="path592"
       style="fill:#050100;fill-opacity:1;fill-rule:nonzero;stroke:none"
       d="m 211.015,153.413 1.45313,0 0,0.73203 -1.45313,0 0,-0.73203 z" /><path
       inkscape:connector-curvature="0"
       id="path594"
       style="fill:#050100;fill-opacity:1;fill-rule:nonzero;stroke:none"
       d="m 206.657,154.878 1.45273,0 0,0.73164 -1.45273,0 0,-0.73164 z" /><path
       inkscape:connector-curvature="0"
       id="path596"
       style="fill:#050100;fill-opacity:1;fill-rule:evenodd;stroke:none"
       d="m 204.478,155.61 -1.453,0.732 0,0.733 1.453,-0.733 0,-0.732" /><path
       inkscape:connector-curvature="0"
       id="path598"
       style="fill:#050100;fill-opacity:1;fill-rule:evenodd;stroke:none"
       d="m 200.12,157.075 -1.453,0.731 0,0.733 1.453,-0.733 0,-0.731" /><path
       inkscape:connector-curvature="0"
       id="path600"
       style="fill:#050100;fill-opacity:1;fill-rule:evenodd;stroke:none"
       d="m 195.761,158.539 -1.452,0.732 0,0.733 1.452,-0.733 0,-0.732" /><path
       inkscape:connector-curvature="0"
       id="path602"
       style="fill:#050100;fill-opacity:1;fill-rule:evenodd;stroke:none"
       d="m 190.676,160.004 -0.725,0.732 0.725,0.732 0.727,-0.732 -0.727,-0.732" /><path
       inkscape:connector-curvature="0"
       id="path604"
       style="fill:#050100;fill-opacity:1;fill-rule:evenodd;stroke:none"
       d="m 187.771,161.468 -1.452,0.733 0,0.731 1.452,-0.731 0,-0.733" /><path
       inkscape:connector-curvature="0"
       id="path606"
       style="fill:#050100;fill-opacity:1;fill-rule:nonzero;stroke:none"
       d="m 181.96,162.932 1.45313,0 0,0.73281 -1.45313,0 0,-0.73281 z" /><path
       inkscape:connector-curvature="0"
       id="path608"
       style="fill:#050100;fill-opacity:1;fill-rule:nonzero;stroke:none"
       d="m 177.602,164.397 1.45273,0 0,0.7332 -1.45273,0 0,-0.7332 z" /><path
       inkscape:connector-curvature="0"
       id="path610"
       style="fill:#050100;fill-opacity:1;fill-rule:nonzero;stroke:none"
       d="m 173.97,165.862 1.45195,0 0,0.73203 -1.45195,0 0,-0.73203 z" /><path
       inkscape:connector-curvature="0"
       id="path612"
       style="fill:#050100;fill-opacity:1;fill-rule:evenodd;stroke:none"
       d="m 171.065,166.594 -1.453,0.733 0,0.731 1.453,-0.731 0,-0.733" /><path
       inkscape:connector-curvature="0"
       id="path614"
       style="fill:#050100;fill-opacity:1;fill-rule:evenodd;stroke:none"
       d="m 166.707,166.594 -1.454,-0.732 0,0.732 1.454,0.733 0,-0.733" /><path
       inkscape:connector-curvature="0"
       id="path616"
       style="fill:#050100;fill-opacity:1;fill-rule:evenodd;stroke:none"
       d="m 163.075,165.13 -0.727,-0.733 -0.726,0.733 0.726,0.732 0.727,-0.732" /><path
       inkscape:connector-curvature="0"
       id="path618"
       style="fill:#050100;fill-opacity:1;fill-rule:evenodd;stroke:none"
       d="m 158.716,163.665 -1.453,-0.733 0,0.733 1.453,0.732 0,-0.732" /><path
       inkscape:connector-curvature="0"
       id="path620"
       style="fill:#050100;fill-opacity:1;fill-rule:nonzero;stroke:none"
       d="m 152.905,162.201 1.45234,0 0,0.73125 -1.45234,0 0,-0.73125 z" /><path
       inkscape:connector-curvature="0"
       id="path622"
       style="fill:#050100;fill-opacity:1;fill-rule:nonzero;stroke:none"
       d="m 148.546,160.736 1.45391,0 0,0.73203 -1.45391,0 0,-0.73203 z" /><path
       inkscape:connector-curvature="0"
       id="path624"
       style="fill:#050100;fill-opacity:1;fill-rule:nonzero;stroke:none"
       d="m 144.915,159.271 1.45313,0 0,0.73281 -1.45313,0 0,-0.73281 z" /><path
       inkscape:connector-curvature="0"
       id="path626"
       style="fill:#050100;fill-opacity:1;fill-rule:evenodd;stroke:none"
       d="m 142.009,158.539 -1.452,-0.733 0,0.733 1.452,0.732 0,-0.732" /><path
       inkscape:connector-curvature="0"
       id="path628"
       style="fill:#050100;fill-opacity:1;fill-rule:evenodd;stroke:none"
       d="m 137.651,157.075 -1.452,-0.733 0,0.733 1.452,0.731 0,-0.731" /><path
       inkscape:connector-curvature="0"
       id="path630"
       style="fill:#050100;fill-opacity:1;fill-rule:evenodd;stroke:none"
       d="m 134.019,155.61 -1.452,-0.732 0,0.732 1.452,0.732 0,-0.732" /><path
       inkscape:connector-curvature="0"
       id="path632"
       style="fill:#050100;fill-opacity:1;fill-rule:evenodd;stroke:none"
       d="m 129.661,154.145 -1.452,-0.732 0,0.732 1.452,0.733 0,-0.733" /><path
       inkscape:connector-curvature="0"
       id="path634"
       style="fill:#050100;fill-opacity:1;fill-rule:evenodd;stroke:none"
       d="m 126.029,151.949 -1.452,-0.733 0,0.733 1.452,0.732 0,-0.732" /><path
       inkscape:connector-curvature="0"
       id="path636"
       style="fill:#050100;fill-opacity:1;fill-rule:evenodd;stroke:none"
       d="m 123.124,149.752 -1.454,-1.465 -0.725,0.732 1.452,1.465 0.727,-0.732" /><path
       inkscape:connector-curvature="0"
       id="path638"
       style="fill:#050100;fill-opacity:1;fill-rule:evenodd;stroke:none"
       d="m 118.765,146.823 -1.452,-0.733 0,0.733 1.452,0.732 0,-0.732" /><path
       inkscape:connector-curvature="0"
       id="path640"
       style="fill:#050100;fill-opacity:1;fill-rule:evenodd;stroke:none"
       d="m 115.86,143.893 -0.727,-0.732 -0.726,0.732 0.726,0.733 0.727,-0.733" /><path
       inkscape:connector-curvature="0"
       id="path642"
       style="fill:#050100;fill-opacity:1;fill-rule:evenodd;stroke:none"
       d="m 112.228,142.429 -0.726,-1.465 -0.727,0 0.727,1.465 0.726,0" /><path
       inkscape:connector-curvature="0"
       id="path644"
       style="fill:#050100;fill-opacity:1;fill-rule:evenodd;stroke:none"
       d="m 108.596,138.767 -1.453,-0.732 0,0.732 1.453,0.733 0,-0.733" /><path
       inkscape:connector-curvature="0"
       id="path646"
       style="fill:#050100;fill-opacity:1;fill-rule:evenodd;stroke:none"
       d="m 104.964,135.838 -1.453,-0.732 0,0.732 1.453,0.733 0,-0.733" /><path
       inkscape:connector-curvature="0"
       id="path648"
       style="fill:#050100;fill-opacity:1;fill-rule:evenodd;stroke:none"
       d="m 102.059,134.373 -0.726,-1.464 -0.727,0 0.727,1.464 0.726,0" /><path
       inkscape:connector-curvature="0"
       id="path650"
       style="fill:#050100;fill-opacity:1;fill-rule:evenodd;stroke:none"
       d="m 98.427,130.712 -0.727,-0.732 -0.726,0.732 0.726,0.733 0.727,-0.733" /><path
       inkscape:connector-curvature="0"
       id="path652"
       style="fill:#050100;fill-opacity:1;fill-rule:evenodd;stroke:none"
       d="m 94.795,127.783 -1.453,-0.732 0,0.732 1.453,0.732 0,-0.732" /><path
       inkscape:connector-curvature="0"
       id="path654"
       style="fill:#050100;fill-opacity:1;fill-rule:evenodd;stroke:none"
       d="m 91.889,125.586 -1.452,-1.465 -0.727,0.733 1.453,1.465 0.726,-0.733" /><path
       inkscape:connector-curvature="0"
       id="path656"
       style="fill:#050100;fill-opacity:1;fill-rule:evenodd;stroke:none"
       d="m 87.531,122.657 -1.453,-0.732 0,0.732 1.453,0.732 0,-0.732" /><path
       inkscape:connector-curvature="0"
       id="path658"
       style="fill:#050100;fill-opacity:1;fill-rule:evenodd;stroke:none"
       d="m 84.626,119.728 -0.727,-0.733 -0.726,0.733 0.726,0.732 0.727,-0.732" /><path
       inkscape:connector-curvature="0"
       id="path660"
       style="fill:#050100;fill-opacity:1;fill-rule:evenodd;stroke:none"
       d="m 81.72,116.067 -1.453,-0.733 0,0.733 1.453,0.732 0,-0.732" /><path
       inkscape:connector-curvature="0"
       id="path662"
       style="fill:#050100;fill-opacity:1;fill-rule:evenodd;stroke:none"
       d="m 79.541,112.405 -0.727,-0.732 -0.726,0.732 0.726,0.733 0.727,-0.733" /><path
       inkscape:connector-curvature="0"
       id="path664"
       style="fill:#050100;fill-opacity:1;fill-rule:evenodd;stroke:none"
       d="m 76.635,110.208 -0.726,-1.464 -0.726,0 0.726,1.464 0.726,0" /><path
       inkscape:connector-curvature="0"
       id="path666"
       style="fill:#050100;fill-opacity:1;fill-rule:evenodd;stroke:none"
       d="m 74.457,105.814 -1.454,-1.464 -0.726,0.732 1.453,1.465 0.727,-0.733" /><path
       inkscape:connector-curvature="0"
       id="path668"
       style="fill:#050100;fill-opacity:1;fill-rule:evenodd;stroke:none"
       d="m 71.551,102.886 -0.727,-1.465 -0.726,0 0.726,1.465 0.727,0" /><path
       inkscape:connector-curvature="0"
       id="path670"
       style="fill:#050100;fill-opacity:1;fill-rule:evenodd;stroke:none"
       d="m 68.645,99.224 -0.726,-1.464 -0.727,0 0.727,1.464 0.726,0" /><path
       inkscape:connector-curvature="0"
       id="path672"
       style="fill:#050100;fill-opacity:1;fill-rule:evenodd;stroke:none"
       d="m 65.74,94.83 -0.727,-0.732 -0.726,0.732 0.726,0.732 0.727,-0.732" /><path
       inkscape:connector-curvature="0"
       id="path674"
       style="fill:#050100;fill-opacity:1;fill-rule:evenodd;stroke:none"
       d="m 63.561,91.169 -0.726,-0.733 -0.727,0.733 0.727,0.732 0.726,-0.732" /><path
       inkscape:connector-curvature="0"
       id="path676"
       style="fill:#050100;fill-opacity:1;fill-rule:evenodd;stroke:none"
       d="m 60.655,87.508 -0.726,-0.733 -0.727,0.733 0.727,0.732 0.726,-0.732" /><path
       inkscape:connector-curvature="0"
       id="path678"
       style="fill:#050100;fill-opacity:1;fill-rule:evenodd;stroke:none"
       d="m 58.476,83.846 -0.726,-0.732 -0.727,0.732 0.727,0.732 0.726,-0.732" /><path
       inkscape:connector-curvature="0"
       id="path680"
       style="fill:#050100;fill-opacity:1;fill-rule:evenodd;stroke:none"
       d="m 55.57,80.184 -0.726,-0.732 -0.726,0.732 0.726,0.733 0.726,-0.733" /><path
       inkscape:connector-curvature="0"
       id="path682"
       style="fill:#050100;fill-opacity:1;fill-rule:evenodd;stroke:none"
       d="m 53.391,76.523 -0.726,-0.732 -0.726,0.732 0.726,0.733 0.726,-0.733" /><path
       inkscape:connector-curvature="0"
       id="path684"
       style="fill:#050100;fill-opacity:1;fill-rule:evenodd;stroke:none"
       d="m 50.486,74.326 -0.727,-1.464 -0.726,0 0.726,1.464 0.727,0" /><path
       inkscape:connector-curvature="0"
       id="path686"
       style="fill:#050100;fill-opacity:1;fill-rule:evenodd;stroke:none"
       d="m 48.307,69.932 -1.453,-1.463 -0.727,0.731 1.453,1.465 0.727,-0.733" /><path
       inkscape:connector-curvature="0"
       id="path688"
       style="fill:#050100;fill-opacity:1;fill-rule:evenodd;stroke:none"
       d="m 45.401,67.004 -0.726,-1.465 -0.727,0 0.727,1.465 0.726,0" /><path
       inkscape:connector-curvature="0"
       id="path690"
       style="fill:#050100;fill-opacity:1;fill-rule:evenodd;stroke:none"
       d="m 42.496,63.342 -0.727,-1.464 -0.726,0 0.726,1.464 0.727,0" /><path
       inkscape:connector-curvature="0"
       id="path692"
       style="fill:#050100;fill-opacity:1;fill-rule:evenodd;stroke:none"
       d="m 40.316,59.681 -0.726,-1.465 -0.726,0 0.726,1.465 0.726,0" /><path
       inkscape:connector-curvature="0"
       id="path694"
       style="fill:#050100;fill-opacity:1;fill-rule:evenodd;stroke:none"
       d="m 38.137,55.287 -0.726,-0.732 -0.726,0.732 0.726,0.732 0.726,-0.732" /><path
       inkscape:connector-curvature="0"
       id="path696"
       style="fill:#050100;fill-opacity:1;fill-rule:evenodd;stroke:none"
       d="m 37.411,54.555 -0.726,-0.733 -0.726,0.733 0.726,0.732 0.726,-0.732" /><path
       inkscape:connector-curvature="0"
       id="path698"
       style="fill:#050100;fill-opacity:1;fill-rule:evenodd;stroke:none"
       d="m 34.505,51.626 -1.452,-0.733 0,0.733 1.452,0.732 0,-0.732" /><path
       inkscape:connector-curvature="0"
       id="path700"
       style="fill:#050100;fill-opacity:1;fill-rule:evenodd;stroke:none"
       d="m 32.326,48.696 -0.726,-1.464 -0.726,0 0.726,1.464 0.726,0" /><path
       inkscape:connector-curvature="0"
       id="path702"
       style="fill:#050100;fill-opacity:1;fill-rule:evenodd;stroke:none"
       d="m 30.147,44.303 -0.726,-0.733 -0.727,0.733 0.727,0.732 0.726,-0.732" /><path
       inkscape:connector-curvature="0"
       id="path704"
       style="fill:#050100;fill-opacity:1;fill-rule:evenodd;stroke:none"
       d="m 29.421,43.57 -0.727,-0.732 -0.726,0.732 0.726,0.733 0.727,-0.733" /><path
       inkscape:connector-curvature="0"
       id="path706"
       style="fill:#050100;fill-opacity:1;fill-rule:evenodd;stroke:none"
       d="m 27.242,40.641 -0.727,-0.732 -0.726,0.732 0.726,0.733 0.727,-0.733" /><path
       inkscape:connector-curvature="0"
       id="path708"
       style="fill:#050100;fill-opacity:1;fill-rule:evenodd;stroke:none"
       d="m 26.515,39.909 -0.726,-0.732 -0.726,0.732 0.726,0.732 0.726,-0.732" /><path
       inkscape:connector-curvature="0"
       id="path710"
       style="fill:#050100;fill-opacity:1;fill-rule:evenodd;stroke:none"
       d="m 24.336,36.98 -0.726,-1.465 -0.727,0 0.727,1.465 0.726,0" /><path
       inkscape:connector-curvature="0"
       id="path712"
       style="fill:#050100;fill-opacity:1;fill-rule:evenodd;stroke:none"
       d="m 21.431,33.318 -0.727,-1.464 -0.726,0 0.726,1.464 0.727,0" /><path
       inkscape:connector-curvature="0"
       id="path714"
       style="fill:#050100;fill-opacity:1;fill-rule:evenodd;stroke:none"
       d="m 18.525,28.192 -0.726,-0.732 -0.727,0.732 0.727,0.733 0.726,-0.733" /><path
       inkscape:connector-curvature="0"
       id="path716"
       style="fill:#050100;fill-opacity:1;fill-rule:evenodd;stroke:none"
       d="m 253.872,143.893 2.179,-2.196 -2.179,-2.197 -2.179,2.197 2.179,2.196" /><path
       inkscape:connector-curvature="0"
       id="path718"
       style="fill:none;stroke:#050100;stroke-width:0.73199999;stroke-linecap:square;stroke-linejoin:miter;stroke-miterlimit:10;stroke-opacity:1;stroke-dasharray:none"
       d="m 253.872,143.893 2.179,-2.196 -2.179,-2.197 -2.179,2.197 2.179,2.196 z" /><path
       inkscape:connector-curvature="0"
       id="path720"
       style="fill:#050100;fill-opacity:1;fill-rule:evenodd;stroke:none"
       d="m 169.612,170.256 2.179,-2.198 -2.179,-2.196 -2.179,2.196 2.179,2.198" /><path
       inkscape:connector-curvature="0"
       id="path722"
       style="fill:none;stroke:#050100;stroke-width:0.73199999;stroke-linecap:square;stroke-linejoin:miter;stroke-miterlimit:10;stroke-opacity:1;stroke-dasharray:none"
       d="m 169.612,170.256 2.179,-2.198 -2.179,-2.196 -2.179,2.196 2.179,2.198 z" /><path
       inkscape:connector-curvature="0"
       id="path724"
       style="fill:#050100;fill-opacity:1;fill-rule:evenodd;stroke:none"
       d="m 127.482,156.342 2.179,-2.197 -2.179,-2.196 -2.179,2.196 2.179,2.197" /><path
       inkscape:connector-curvature="0"
       id="path726"
       style="fill:none;stroke:#050100;stroke-width:0.73199999;stroke-linecap:square;stroke-linejoin:miter;stroke-miterlimit:10;stroke-opacity:1;stroke-dasharray:none"
       d="m 127.482,156.342 2.179,-2.197 -2.179,-2.196 -2.179,2.196 2.179,2.197 z" /><path
       inkscape:connector-curvature="0"
       id="path728"
       style="fill:#050100;fill-opacity:1;fill-rule:evenodd;stroke:none"
       d="m 84.626,123.389 2.179,-2.196 -2.179,-2.198 -2.18,2.198 2.18,2.196" /><path
       inkscape:connector-curvature="0"
       id="path730"
       style="fill:none;stroke:#050100;stroke-width:0.73199999;stroke-linecap:square;stroke-linejoin:miter;stroke-miterlimit:10;stroke-opacity:1;stroke-dasharray:none"
       d="m 84.626,123.389 2.179,-2.196 -2.179,-2.198 -2.18,2.198 2.18,2.196 z" /><path
       inkscape:connector-curvature="0"
       id="path732"
       style="fill:#050100;fill-opacity:1;fill-rule:evenodd;stroke:none"
       d="m 63.561,95.562 2.179,-2.196 -2.179,-2.197 -2.18,2.197 2.18,2.196" /><path
       inkscape:connector-curvature="0"
       id="path734"
       style="fill:none;stroke:#050100;stroke-width:0.73199999;stroke-linecap:square;stroke-linejoin:miter;stroke-miterlimit:10;stroke-opacity:1;stroke-dasharray:none"
       d="m 63.561,95.562 2.179,-2.196 -2.179,-2.197 -2.18,2.197 2.18,2.196 z" /><path
       inkscape:connector-curvature="0"
       id="path736"
       style="fill:#050100;fill-opacity:1;fill-rule:evenodd;stroke:none"
       d="m 51.212,77.988 2.179,-2.197 -2.179,-2.197 -2.179,2.197 2.179,2.197" /><path
       inkscape:connector-curvature="0"
       id="path738"
       style="fill:none;stroke:#050100;stroke-width:0.73199999;stroke-linecap:square;stroke-linejoin:miter;stroke-miterlimit:10;stroke-opacity:1;stroke-dasharray:none"
       d="m 51.212,77.988 2.179,-2.197 -2.179,-2.197 -2.179,2.197 2.179,2.197 z" /><path
       inkscape:connector-curvature="0"
       id="path740"
       style="fill:#050100;fill-opacity:1;fill-rule:evenodd;stroke:none"
       d="m 42.496,66.271 2.179,-2.197 -2.179,-2.196 -2.18,2.196 2.18,2.197" /><path
       inkscape:connector-curvature="0"
       id="path742"
       style="fill:none;stroke:#050100;stroke-width:0.73199999;stroke-linecap:square;stroke-linejoin:miter;stroke-miterlimit:10;stroke-opacity:1;stroke-dasharray:none"
       d="m 42.496,66.271 2.179,-2.197 -2.179,-2.196 -2.18,2.196 2.18,2.197 z" /><path
       inkscape:connector-curvature="0"
       id="path744"
       style="fill:#050100;fill-opacity:1;fill-rule:evenodd;stroke:none"
       d="m 36.685,57.484 2.179,-2.197 -2.179,-2.197 -2.18,2.197 2.18,2.197" /><path
       inkscape:connector-curvature="0"
       id="path746"
       style="fill:none;stroke:#050100;stroke-width:0.73199999;stroke-linecap:square;stroke-linejoin:miter;stroke-miterlimit:10;stroke-opacity:1;stroke-dasharray:none"
       d="m 36.685,57.484 2.179,-2.197 -2.179,-2.197 -2.18,2.197 2.18,2.197 z" /><path
       inkscape:connector-curvature="0"
       id="path748"
       style="fill:#050100;fill-opacity:1;fill-rule:evenodd;stroke:none"
       d="m 32.326,52.358 2.179,-2.197 -2.179,-2.197 -2.179,2.197 2.179,2.197" /><path
       inkscape:connector-curvature="0"
       id="path750"
       style="fill:none;stroke:#050100;stroke-width:0.73199999;stroke-linecap:square;stroke-linejoin:miter;stroke-miterlimit:10;stroke-opacity:1;stroke-dasharray:none"
       d="m 32.326,52.358 2.179,-2.197 -2.179,-2.197 -2.179,2.197 2.179,2.197 z" /><path
       inkscape:connector-curvature="0"
       id="path752"
       style="fill:#050100;fill-opacity:1;fill-rule:evenodd;stroke:none"
       d="m 28.694,46.5 2.18,-2.197 -2.18,-2.197 -2.179,2.197 2.179,2.197" /><path
       inkscape:connector-curvature="0"
       id="path754"
       style="fill:none;stroke:#050100;stroke-width:0.73199999;stroke-linecap:square;stroke-linejoin:miter;stroke-miterlimit:10;stroke-opacity:1;stroke-dasharray:none"
       d="m 28.694,46.5 2.18,-2.197 -2.18,-2.197 -2.179,2.197 2.179,2.197 z" /><path
       inkscape:connector-curvature="0"
       id="path756"
       style="fill:#050100;fill-opacity:1;fill-rule:evenodd;stroke:none"
       d="m 25.789,42.106 2.179,-2.197 -2.179,-2.197 -2.179,2.197 2.179,2.197" /><path
       inkscape:connector-curvature="0"
       id="path758"
       style="fill:none;stroke:#050100;stroke-width:0.73199999;stroke-linecap:square;stroke-linejoin:miter;stroke-miterlimit:10;stroke-opacity:1;stroke-dasharray:none"
       d="m 25.789,42.106 2.179,-2.197 -2.179,-2.197 -2.179,2.197 2.179,2.197 z" /><path
       inkscape:connector-curvature="0"
       id="path760"
       style="fill:#050100;fill-opacity:1;fill-rule:evenodd;stroke:none"
       d="m 23.61,38.444 2.179,-2.196 -2.179,-2.197 -2.179,2.197 2.179,2.196" /><path
       inkscape:connector-curvature="0"
       id="path762"
       style="fill:none;stroke:#050100;stroke-width:0.73199999;stroke-linecap:square;stroke-linejoin:miter;stroke-miterlimit:10;stroke-opacity:1;stroke-dasharray:none"
       d="m 23.61,38.444 2.179,-2.196 -2.179,-2.197 -2.179,2.197 2.179,2.196 z" /><path
       inkscape:connector-curvature="0"
       id="path764"
       style="fill:#050100;fill-opacity:1;fill-rule:evenodd;stroke:none"
       d="m 21.431,35.515 2.179,-2.197 -2.179,-2.196 -2.179,2.196 2.179,2.197" /><path
       inkscape:connector-curvature="0"
       id="path766"
       style="fill:none;stroke:#050100;stroke-width:0.73199999;stroke-linecap:square;stroke-linejoin:miter;stroke-miterlimit:10;stroke-opacity:1;stroke-dasharray:none"
       d="m 21.431,35.515 2.179,-2.197 -2.179,-2.196 -2.179,2.196 2.179,2.197 z" /><path
       inkscape:connector-curvature="0"
       id="path768"
       style="fill:#050100;fill-opacity:1;fill-rule:evenodd;stroke:none"
       d="m 19.978,32.586 2.179,-2.197 -2.179,-2.197 -2.179,2.197 2.179,2.197" /><path
       inkscape:connector-curvature="0"
       id="path770"
       style="fill:none;stroke:#050100;stroke-width:0.73199999;stroke-linecap:square;stroke-linejoin:miter;stroke-miterlimit:10;stroke-opacity:1;stroke-dasharray:none"
       d="m 19.978,32.586 2.179,-2.197 -2.179,-2.197 -2.179,2.197 2.179,2.197 z" /><path
       inkscape:connector-curvature="0"
       id="path772"
       style="fill:#050100;fill-opacity:1;fill-rule:evenodd;stroke:none"
       d="m 18.525,31.122 2.179,-2.197 -2.179,-2.197 -2.179,2.197 2.179,2.197" /><path
       inkscape:connector-curvature="0"
       id="path774"
       style="fill:none;stroke:#050100;stroke-width:0.73199999;stroke-linecap:square;stroke-linejoin:miter;stroke-miterlimit:10;stroke-opacity:1;stroke-dasharray:none"
       d="m 18.525,31.122 2.179,-2.197 -2.179,-2.197 -2.179,2.197 2.179,2.197 z" /><path
       inkscape:connector-curvature="0"
       id="path776"
       style="fill:#050100;fill-opacity:1;fill-rule:evenodd;stroke:none"
       d="m 17.072,28.925 2.18,-2.197 -2.18,-2.197 -2.179,2.197 2.179,2.197" /><text
       transform="scale(1,-1)"
       id="text900"
       x="2.813"
       y="-14.586"><tspan
         style="font-size:8px;font-variant:normal;font-weight:normal;writing-mode:lr-tb;fill:#050100;fill-opacity:1;fill-rule:nonzero;stroke:none;font-family:Times;-inkscape-font-specification:TimesNewRomanPSMT"
         x="2.813 6.8130002 10.813 14.813 18.365"
         y="-14.586"
         sodipodi:role="line"
         id="tspan902">150cm</tspan><tspan
         style="font-size:8px;font-variant:normal;font-weight:normal;writing-mode:lr-tb;fill:#050100;fill-opacity:1;fill-rule:nonzero;stroke:none;font-family:Times;-inkscape-font-specification:TimesNewRomanPSMT"
         x="33.309101 37.309101 41.309101 45.309101 48.861099"
         y="-37.585999"
         sodipodi:role="line"
         id="tspan904">100cm</tspan><tspan
         style="font-size:8px;font-variant:normal;font-weight:normal;writing-mode:lr-tb;fill:#050100;fill-opacity:1;fill-rule:nonzero;stroke:none;font-family:Times;-inkscape-font-specification:TimesNewRomanPSMT"
         x="17.813 21.813 25.813 29.365"
         y="-63.089897"
         sodipodi:role="line"
         id="tspan906">60cm</tspan><tspan
         style="font-size:8px;font-variant:normal;font-weight:normal;writing-mode:lr-tb;fill:#050100;fill-opacity:1;fill-rule:nonzero;stroke:none;font-family:Times;-inkscape-font-specification:TimesNewRomanPSMT"
         x="26.31691 30.31691 34.31691 37.868908"
         y="-74.089897"
         sodipodi:role="line"
         id="tspan908">50cm</tspan><tspan
         style="font-size:8px;font-variant:normal;font-weight:normal;writing-mode:lr-tb;fill:#050100;fill-opacity:1;fill-rule:nonzero;stroke:none;font-family:Times;-inkscape-font-specification:TimesNewRomanPSMT"
         x="37.813011 41.813011 45.813011 49.365009"
         y="-92.5942"
         sodipodi:role="line"
         id="tspan910">40cm</tspan><tspan
         style="font-size:8px;font-variant:normal;font-weight:normal;writing-mode:lr-tb;fill:#050100;fill-opacity:1;fill-rule:nonzero;stroke:none;font-family:Times;-inkscape-font-specification:TimesNewRomanPSMT"
         x="59.813011 63.813011 67.813011 71.365013"
         y="-121.0981"
         sodipodi:role="line"
         id="tspan912">30cm</tspan><tspan
         style="font-size:8px;font-variant:normal;font-weight:normal;writing-mode:lr-tb;fill:#050100;fill-opacity:1;fill-rule:nonzero;stroke:none;font-family:Times;-inkscape-font-specification:TimesNewRomanPSMT"
         x="100.81301 104.81301 108.81301 112.36501"
         y="-153.0981"
         sodipodi:role="line"
         id="tspan914">20cm</tspan><tspan
         style="font-size:8px;font-variant:normal;font-weight:normal;writing-mode:lr-tb;fill:#050100;fill-opacity:1;fill-rule:nonzero;stroke:none;font-family:Times;-inkscape-font-specification:TimesNewRomanPSMT"
         x="144.81302 148.81302 152.81302 156.36502"
         y="-169.0981"
         sodipodi:role="line"
         id="tspan916">15cm</tspan><tspan
         style="font-size:8px;font-variant:normal;font-weight:normal;writing-mode:lr-tb;fill:#050100;fill-opacity:1;fill-rule:nonzero;stroke:none;font-family:Times;-inkscape-font-specification:TimesNewRomanPSMT"
         x="233.81302 237.81302 241.81302 245.36502"
         y="-132.60201"
         sodipodi:role="line"
         id="tspan918">10cm</tspan></text>
<path
       inkscape:connector-curvature="0"
       id="path4043"
       d="m 17.824957,-11.999997 -10.04992,0"
       style="fill:none;stroke:#000000;stroke-width:0.00080001;stroke-linecap:butt;stroke-linejoin:miter;stroke-miterlimit:4;stroke-opacity:1;stroke-dasharray:none" /><path
       sodipodi:type="arc"
       style="fill:none;stroke:#000000;stroke-width:5.13869953;stroke-opacity:1"
       id="path4047"
       sodipodi:cx="26.5"
       sodipodi:cy="1083"
       sodipodi:rx="21.5"
       sodipodi:ry="21.5"
       d="m 48,1083 a 21.5,21.5 0 1 1 -43,0 21.5,21.5 0 1 1 43,0 z"
       transform="matrix(0.15568141,0,0,-0.15568141,8.6744396,156.60297)" /><path
       style="fill:none;stroke:#000000;stroke-width:0.00080001;stroke-linecap:butt;stroke-linejoin:miter;stroke-miterlimit:4;stroke-opacity:1;stroke-dasharray:none"
       d="m 12.799997,-17.024957 0,10.04992"
       id="path5185"
       inkscape:connector-curvature="0" /></g></svg>