<?xml version="1.0" encoding="UTF-8" standalone="no"?>
<!-- Created with Inkscape (http://www.inkscape.org/) -->

<svg
   xmlns:dc="http://purl.org/dc/elements/1.1/"
   xmlns:cc="http://creativecommons.org/ns#"
   xmlns:rdf="http://www.w3.org/1999/02/22-rdf-syntax-ns#"
   xmlns:svg="http://www.w3.org/2000/svg"
   xmlns="http://www.w3.org/2000/svg"
   xmlns:sodipodi="http://sodipodi.sourceforge.net/DTD/sodipodi-0.dtd"
   xmlns:inkscape="http://www.inkscape.org/namespaces/inkscape"
   id="svg2"
   version="1.1"
   inkscape:version="0.48.5 r10040"
   width="743.75"
   height="1052.5"
   xml:space="preserve"
   sodipodi:docname="gp2y0a710k_graph_100-550.svg"><metadata
     id="metadata8"><rdf:RDF><cc:Work
         rdf:about=""><dc:format>image/svg+xml</dc:format><dc:type
           rdf:resource="http://purl.org/dc/dcmitype/StillImage" /><dc:title></dc:title></cc:Work></rdf:RDF></metadata><defs
     id="defs6"><clipPath
       clipPathUnits="userSpaceOnUse"
       id="clipPath384"><path
         d="m 2956.1,360 40,0 0,79.6797 -40,0 0,-79.6797 z"
         id="path386" /></clipPath></defs><sodipodi:namedview
     pagecolor="#ffffff"
     bordercolor="#666666"
     borderopacity="1"
     objecttolerance="10"
     gridtolerance="10"
     guidetolerance="10"
     inkscape:pageopacity="0"
     inkscape:pageshadow="2"
     inkscape:window-width="1268"
     inkscape:window-height="751"
     id="namedview4"
     showgrid="false"
     inkscape:zoom="1.44031"
     inkscape:cx="-159.93216"
     inkscape:cy="222.98353"
     inkscape:window-x="0"
     inkscape:window-y="21"
     inkscape:window-maximized="1"
     inkscape:current-layer="g10" /><g
     id="g10"
     inkscape:groupmode="layer"
     inkscape:label="ink_ext_XXXXXX"
     transform="matrix(1.25,0,0,-1.25,0,1052.5)"><path
       inkscape:connector-curvature="0"
       id="path230"
       style="fill:none;stroke:#221f1f;stroke-width:0.06;stroke-linecap:round;stroke-linejoin:round;stroke-miterlimit:10;stroke-opacity:1;stroke-dasharray:none"
       d="m 0.05,30.78 274.32,0 M 0.05,61.5 l 274.32,0 M 0.05,92.28 l 274.32,0 m -274.32,30 274.32,0 M 0.05,153 l 274.32,0 m -274.32,30.78 274.32,0 M 0.05,214.5 l 274.32,0" /><path
       inkscape:connector-curvature="0"
       id="path232"
       style="fill:none;stroke:#221f1f;stroke-width:0.75040001;stroke-linecap:round;stroke-linejoin:round;stroke-miterlimit:10;stroke-opacity:1;stroke-dasharray:none"
       d="m 0.05,214.5 274.32,0 m 0,0 0,-214.5 m 0,0 L 0.05,0 m 0,0 0,214.5" /><path
       inkscape:connector-curvature="0"
       id="path236"
       style="fill:none;stroke:#221f1f;stroke-width:1.49899995;stroke-linecap:round;stroke-linejoin:round;stroke-miterlimit:10;stroke-opacity:1;stroke-dasharray:none"
       d="M 274.3696,152.28 182.93,126 m 4e-4,0 -45.7204,-15 m 4e-4,0 -27.7204,-9 m 4e-4,0 L 91.49,95.28 m 4e-4,0 L 78.77,91.5 m 4e-4,0 -9.7804,-3 m 4e-4,0 -8.2204,-2.22 m 4e-4,0 L 54.77,85.5 m 4e-4,0 -4.5,-1.5"
       sodipodi:nodetypes="cccccccccccccccccc" /><path
       inkscape:connector-curvature="0"
       id="path238"
       style="fill:#221f1f;fill-opacity:1;fill-rule:evenodd;stroke:none"
       d="m 274.37,151.5 -5.22,-1.5 0,0.78 5.22,1.5" /><path
       inkscape:connector-curvature="0"
       id="path240"
       style="fill:#221f1f;fill-opacity:1;fill-rule:evenodd;stroke:none"
       d="m 266.15,149.28 -1.5,-0.78 0,0.78 1.5,0.72" /><path
       inkscape:connector-curvature="0"
       id="path242"
       style="fill:#221f1f;fill-opacity:1;fill-rule:evenodd;stroke:none"
       d="m 262.37,147.78 -5.22,-1.5 0,0.72 5.22,1.5" /><path
       inkscape:connector-curvature="0"
       id="path244"
       style="fill:none;stroke:#221f1f;stroke-width:1.5;stroke-linecap:butt;stroke-linejoin:round;stroke-miterlimit:10;stroke-opacity:1;stroke-dasharray:none"
       d="m 253.4,145.5 0,0.78" /><path
       inkscape:connector-curvature="0"
       id="path246"
       style="fill:#221f1f;fill-opacity:1;fill-rule:evenodd;stroke:none"
       d="m 249.65,144.78 -5.28,-1.5 0,0.72 5.28,1.5" /><path
       inkscape:connector-curvature="0"
       id="path248"
       style="fill:none;stroke:#221f1f;stroke-width:1.5;stroke-linecap:butt;stroke-linejoin:round;stroke-miterlimit:10;stroke-opacity:1;stroke-dasharray:none"
       d="m 240.62,141.78 0,0.72" /><path
       inkscape:connector-curvature="0"
       id="path250"
       style="fill:#221f1f;fill-opacity:1;fill-rule:evenodd;stroke:none"
       d="m 237.65,141 -5.28,-1.5 0,0.78 5.28,1.5" /><path
       inkscape:connector-curvature="0"
       id="path252"
       style="fill:#221f1f;fill-opacity:1;fill-rule:evenodd;stroke:none"
       d="m 229.37,138.78 -1.5,-0.78 0,0.78 1.5,0.72" /><path
       inkscape:connector-curvature="0"
       id="path254"
       style="fill:#221f1f;fill-opacity:1;fill-rule:evenodd;stroke:none"
       d="m 224.93,137.28 -5.28,-1.5 0,0.72 5.28,1.5" /><path
       inkscape:connector-curvature="0"
       id="path256"
       style="fill:#221f1f;fill-opacity:1;fill-rule:evenodd;stroke:none"
       d="m 217.43,135 -1.5,-0.72 0,0.72 1.5,0.78" /><path
       inkscape:connector-curvature="0"
       id="path258"
       style="fill:#221f1f;fill-opacity:1;fill-rule:evenodd;stroke:none"
       d="m 212.93,133.5 -5.28,-1.5 0,0.78 5.28,1.5" /><path
       inkscape:connector-curvature="0"
       id="path260"
       style="fill:none;stroke:#221f1f;stroke-width:1.5;stroke-linecap:butt;stroke-linejoin:round;stroke-miterlimit:10;stroke-opacity:1;stroke-dasharray:none"
       d="m 203.9,131.28 0,0.72" /><path
       inkscape:connector-curvature="0"
       id="path262"
       style="fill:#221f1f;fill-opacity:1;fill-rule:evenodd;stroke:none"
       d="m 200.15,130.5 -5.22,-1.5 0,0.78 5.22,1.5" /><path
       inkscape:connector-curvature="0"
       id="path264"
       style="fill:#221f1f;fill-opacity:1;fill-rule:evenodd;stroke:none"
       d="m 192.65,128.28 -1.5,-0.78 0,0.78 1.5,0.72" /><path
       inkscape:connector-curvature="0"
       id="path266"
       style="fill:#221f1f;fill-opacity:1;fill-rule:evenodd;stroke:none"
       d="m 188.15,126.78 -5.22,-1.5 0,0.72 5.22,1.5" /><path
       inkscape:connector-curvature="0"
       id="path268"
       style="fill:#221f1f;fill-opacity:1;fill-rule:evenodd;stroke:none"
       d="m 179.93,124.5 -1.5,-0.72 0,0.72 1.5,0.78" /><path
       inkscape:connector-curvature="0"
       id="path270"
       style="fill:#221f1f;fill-opacity:1;fill-rule:evenodd;stroke:none"
       d="m 175.43,123 -4.5,-1.5 0,0.78 4.5,1.5" /><path
       inkscape:connector-curvature="0"
       id="path272"
       style="fill:none;stroke:#221f1f;stroke-width:1.5;stroke-linecap:butt;stroke-linejoin:round;stroke-miterlimit:10;stroke-opacity:1;stroke-dasharray:none"
       d="m 167.18,120 0,0.78" /><path
       inkscape:connector-curvature="0"
       id="path274"
       style="fill:#221f1f;fill-opacity:1;fill-rule:evenodd;stroke:none"
       d="m 163.43,119.28 -4.5,-2.28 0,0.78 4.5,2.22" /><path
       inkscape:connector-curvature="0"
       id="path276"
       style="fill:#221f1f;fill-opacity:1;fill-rule:evenodd;stroke:none"
       d="m 155.93,116.28 -1.5,-0.78 0,0.78 1.5,0.72" /><path
       inkscape:connector-curvature="0"
       id="path278"
       style="fill:#221f1f;fill-opacity:1;fill-rule:evenodd;stroke:none"
       d="m 151.43,114.78 -5.22,-1.5 0,0.72 5.22,1.5" /><path
       inkscape:connector-curvature="0"
       id="path280"
       style="fill:#221f1f;fill-opacity:1;fill-rule:evenodd;stroke:none"
       d="m 143.93,112.5 -1.5,-0.72 0,0.72 1.5,0.78" /><path
       inkscape:connector-curvature="0"
       id="path282"
       style="fill:#221f1f;fill-opacity:1;fill-rule:evenodd;stroke:none"
       d="m 139.43,111 -2.22,-0.72 0,0.72 2.22,0.78" /><path
       inkscape:connector-curvature="0"
       id="path284"
       style="fill:#221f1f;fill-opacity:1;fill-rule:evenodd;stroke:none"
       d="m 137.21,110.28 -3,-0.78 0,0.78 3,0.72" /><path
       inkscape:connector-curvature="0"
       id="path286"
       style="fill:#221f1f;fill-opacity:1;fill-rule:evenodd;stroke:none"
       d="m 131.21,108.78 -1.5,-0.78 0,0.78 1.5,0.72" /><path
       inkscape:connector-curvature="0"
       id="path288"
       style="fill:#221f1f;fill-opacity:1;fill-rule:evenodd;stroke:none"
       d="m 126.71,107.28 -4.5,-1.5 0,0.72 4.5,1.5" /><path
       inkscape:connector-curvature="0"
       id="path290"
       style="fill:#221f1f;fill-opacity:1;fill-rule:evenodd;stroke:none"
       d="m 119.21,105 -1.5,-0.72 0,0.72 1.5,0.78" /><path
       inkscape:connector-curvature="0"
       id="path292"
       style="fill:#221f1f;fill-opacity:1;fill-rule:evenodd;stroke:none"
       d="m 114.71,103.5 -5.22,-1.5 0,0.78 5.22,1.5" /><path
       inkscape:connector-curvature="0"
       id="path294"
       style="fill:#221f1f;fill-opacity:1;fill-rule:evenodd;stroke:none"
       d="m 106.49,101.28 -1.5,-0.78 0,0.78 1.5,0.72" /><path
       inkscape:connector-curvature="0"
       id="path296"
       style="fill:#221f1f;fill-opacity:1;fill-rule:evenodd;stroke:none"
       d="m 101.99,99 -4.5,-1.5 0,0.78 4.5,1.5" /><path
       inkscape:connector-curvature="0"
       id="path298"
       style="fill:none;stroke:#221f1f;stroke-width:1.5;stroke-linecap:butt;stroke-linejoin:round;stroke-miterlimit:10;stroke-opacity:1;stroke-dasharray:none"
       d="m 93.74,96 0,0.78" /><path
       inkscape:connector-curvature="0"
       id="path300"
       style="fill:#221f1f;fill-opacity:1;fill-rule:evenodd;stroke:none"
       d="m 89.99,94.5 -5.22,-1.5 0,0.78 5.22,1.5" /><path
       inkscape:connector-curvature="0"
       id="path302"
       style="fill:none;stroke:#221f1f;stroke-width:1.5;stroke-linecap:butt;stroke-linejoin:round;stroke-miterlimit:10;stroke-opacity:1;stroke-dasharray:none"
       d="m 81.02,92.28 0,0.72" /><path
       inkscape:connector-curvature="0"
       id="path304"
       style="fill:#221f1f;fill-opacity:1;fill-rule:evenodd;stroke:none"
       d="m 77.27,91.5 -5.28,-1.5 0,0.78 5.28,1.5" /><path
       inkscape:connector-curvature="0"
       id="path306"
       style="fill:#221f1f;fill-opacity:1;fill-rule:evenodd;stroke:none"
       d="m 68.99,89.28 -1.5,-0.78 0,0.78 1.5,0.72" /><path
       inkscape:connector-curvature="0"
       id="path308"
       style="fill:#221f1f;fill-opacity:1;fill-rule:evenodd;stroke:none"
       d="m 64.49,87 -3.72,-1.5 0,0.78 3.72,1.5" /><path
       inkscape:connector-curvature="0"
       id="path310"
       style="fill:none;stroke:#221f1f;stroke-width:0.78000003;stroke-linecap:butt;stroke-linejoin:round;stroke-miterlimit:10;stroke-opacity:1;stroke-dasharray:none"
       d="m 60.38,85.5 0,0.78" /><path
       inkscape:connector-curvature="0"
       id="path312"
       style="fill:none;stroke:#221f1f;stroke-width:1.5;stroke-linecap:butt;stroke-linejoin:round;stroke-miterlimit:10;stroke-opacity:1;stroke-dasharray:none"
       d="m 56.24,84.78 0,0.72" /><path
       inkscape:connector-curvature="0"
       id="path314"
       style="fill:#221f1f;fill-opacity:1;fill-rule:evenodd;stroke:none"
       d="m 52.49,84 -2.22,-0.72 0,0.72 2.22,0.78" /><path
       inkscape:connector-curvature="0"
       id="path346"
       style="fill:#ffffff;fill-opacity:1;fill-rule:nonzero;stroke:none"
       d="m 142.43,21 97.4398,0 0,31.5 -97.4398,0 0,-31.5 z" /><path
       inkscape:connector-curvature="0"
       id="path348"
       style="fill:none;stroke:#221f1f;stroke-width:0.06;stroke-linecap:round;stroke-linejoin:round;stroke-miterlimit:10;stroke-opacity:1;stroke-dasharray:none"
       d="m 142.43,21 97.4398,0 0,31.5 -97.4398,0 0,-31.5 z" /><path
       inkscape:connector-curvature="0"
       id="path350"
       style="fill:none;stroke:#221f1f;stroke-width:1.49899995;stroke-linecap:round;stroke-linejoin:round;stroke-miterlimit:10;stroke-opacity:1;stroke-dasharray:none"
       d="m 146.93,42.78 27.78,0" /><path
       inkscape:connector-curvature="0"
       id="path352"
       style="fill:none;stroke:#221f1f;stroke-width:0.78000003;stroke-linecap:butt;stroke-linejoin:round;stroke-miterlimit:10;stroke-opacity:1;stroke-dasharray:none"
       d="m 146.93,27.39 5.28,0" /><path
       inkscape:connector-curvature="0"
       id="path354"
       style="fill:none;stroke:#221f1f;stroke-width:1.5;stroke-linecap:butt;stroke-linejoin:round;stroke-miterlimit:10;stroke-opacity:1;stroke-dasharray:none"
       d="m 155.96,27 0,0.78" /><path
       inkscape:connector-curvature="0"
       id="path356"
       style="fill:none;stroke:#221f1f;stroke-width:0.78000003;stroke-linecap:butt;stroke-linejoin:round;stroke-miterlimit:10;stroke-opacity:1;stroke-dasharray:none"
       d="m 159.71,27.39 5.22,0" /><path
       inkscape:connector-curvature="0"
       id="path358"
       style="fill:none;stroke:#221f1f;stroke-width:1.5;stroke-linecap:butt;stroke-linejoin:round;stroke-miterlimit:10;stroke-opacity:1;stroke-dasharray:none"
       d="m 168.68,27 0,0.78" /><path
       inkscape:connector-curvature="0"
       id="path360"
       style="fill:none;stroke:#221f1f;stroke-width:2.27999997;stroke-linecap:butt;stroke-linejoin:round;stroke-miterlimit:10;stroke-opacity:1;stroke-dasharray:none"
       d="m 173.57,27 0,0.78" /><text
       transform="scale(0.99311731,-1.0069304)"
       id="text364"
       x="178.9416"
       y="-38.911331"
       style="font-size:11.91740799px"><tspan
         style="font-size:11.91601753px;font-variant:normal;font-weight:normal;writing-mode:lr-tb;fill:#221f1f;fill-opacity:1;fill-rule:nonzero;stroke:none;font-family:Times;-inkscape-font-specification:TimesNewRomanPSMT"
         x="178.9416 190.19032 196.14833 199.46098 202.77364 208.06435 211.04335 217.00136 222.29207 228.25008 233.54079"
         y="-38.911331"
         sodipodi:role="line"
         id="tspan366">White paper</tspan><tspan
         style="font-size:11.91601753px;font-variant:normal;font-weight:normal;writing-mode:lr-tb;fill:#221f1f;fill-opacity:1;fill-rule:nonzero;stroke:none;font-family:Times;-inkscape-font-specification:TimesNewRomanPSMT"
         x="178.9416 187.54497 191.513 196.80371 202.76172 205.74072 211.69873 216.98944 222.94745 228.23816"
         y="-23.241825"
         sodipodi:role="line"
         id="tspan368">Gray paper</tspan></text>
<path
       inkscape:connector-curvature="0"
       id="path4043"
       d="m 38.471486,-63.98466 -10.04992,0"
       style="fill:none;stroke:#000000;stroke-width:0.00080001;stroke-linecap:butt;stroke-linejoin:miter;stroke-miterlimit:4;stroke-opacity:1;stroke-dasharray:none" /><path
       sodipodi:type="arc"
       style="fill:none;stroke:#000000;stroke-width:5.13869953;stroke-opacity:1"
       id="path4047"
       sodipodi:cx="26.5"
       sodipodi:cy="1083"
       sodipodi:rx="21.5"
       sodipodi:ry="21.5"
       d="m 48,1083 a 21.5,21.5 0 1 1 -43,0 21.5,21.5 0 1 1 43,0 z"
       transform="matrix(0.15568141,0,0,-0.15568141,29.320966,104.6183)" /><path
       style="fill:none;stroke:#000000;stroke-width:0.00080001;stroke-linecap:butt;stroke-linejoin:miter;stroke-miterlimit:4;stroke-opacity:1;stroke-dasharray:none"
       d="m 33.446526,-69.00962 0,10.04992"
       id="path5185"
       inkscape:connector-curvature="0" /></g></svg>