<?xml version="1.0" encoding="UTF-8" standalone="no"?>
<!-- Created with Inkscape (http://www.inkscape.org/) -->

<svg
   xmlns:dc="http://purl.org/dc/elements/1.1/"
   xmlns:cc="http://creativecommons.org/ns#"
   xmlns:rdf="http://www.w3.org/1999/02/22-rdf-syntax-ns#"
   xmlns:svg="http://www.w3.org/2000/svg"
   xmlns="http://www.w3.org/2000/svg"
   xmlns:sodipodi="http://sodipodi.sourceforge.net/DTD/sodipodi-0.dtd"
   xmlns:inkscape="http://www.inkscape.org/namespaces/inkscape"
   id="svg2"
   version="1.1"
   inkscape:version="0.48.5 r10040"
   width="743.75"
   height="1052.5"
   xml:space="preserve"
   sodipodi:docname="gp2y0a21yk_graph_10-80.svg"><metadata
     id="metadata8"><rdf:RDF><cc:Work
         rdf:about=""><dc:format>image/svg+xml</dc:format><dc:type
           rdf:resource="http://purl.org/dc/dcmitype/StillImage" /></cc:Work></rdf:RDF></metadata><defs
     id="defs6"><clipPath
       clipPathUnits="userSpaceOnUse"
       id="clipPath226"><path
         d="m 2956.1,360 40,0 0,79.6797 -40,0 0,-79.6797 z"
         id="path228" /></clipPath></defs><sodipodi:namedview
     pagecolor="#ffffff"
     bordercolor="#666666"
     borderopacity="1"
     objecttolerance="10"
     gridtolerance="10"
     guidetolerance="10"
     inkscape:pageopacity="0"
     inkscape:pageshadow="2"
     inkscape:window-width="1268"
     inkscape:window-height="751"
     id="namedview4"
     showgrid="false"
     showguides="true"
     inkscape:zoom="1"
     inkscape:cx="125.35652"
     inkscape:cy="134.71973"
     inkscape:window-x="0"
     inkscape:window-y="21"
     inkscape:window-maximized="1"
     inkscape:current-layer="g10" /><g
     id="g10"
     inkscape:groupmode="layer"
     inkscape:label="ink_ext_XXXXXX"
     transform="matrix(1.25,0,0,-1.25,0,1052.5)"><path
       inkscape:connector-curvature="0"
       id="path94"
       style="fill:none;stroke:#050100;stroke-width:1;stroke-linecap:butt;stroke-linejoin:miter;stroke-miterlimit:4;stroke-opacity:1;stroke-dasharray:none"
       d="m 0,0 270.791,0 0,212.333 L 0,212.333 0,0 z" /><path
       inkscape:connector-curvature="0"
       id="path98"
       style="fill:none;stroke:#050100;stroke-width:0.5;stroke-linecap:butt;stroke-linejoin:miter;stroke-miterlimit:4;stroke-opacity:1;stroke-dasharray:none"
       d="M 270.073,187.224 225.005,191.003 192.53,181.129 168.892,166.746 134.65,140.296 90.024,99.828 67.933,79.595 54.677,66.186 45.62,56.435 34.574,44.856 27.946,37.055 23.307,31.325 20.214,27.425 17.563,24.5" /><path
       inkscape:connector-curvature="0"
       id="path100"
       style="fill:none;stroke:#050100;stroke-width:0.5;stroke-linecap:butt;stroke-linejoin:miter;stroke-miterlimit:4;stroke-opacity:1;stroke-dasharray:3, 3;stroke-dashoffset:0"
       d="m 17.563,24.866 2.209,1.95 3.535,4.509 4.639,5.73 6.628,7.801 11.046,11.579 8.836,9.386 13.477,13.774 22.091,20.233 44.626,40.468 34.242,26.45 23.638,14.383 32.475,8.777 45.509,-1.829" /><path
       inkscape:connector-curvature="0"
       id="path102"
       style="fill:#050100;fill-opacity:1;fill-rule:nonzero;stroke:none"
       d="m 18.488,24.014 -1.417,-1.417 -1.418,1.417 1.418,1.417 1.417,-1.417" /><path
       inkscape:connector-curvature="0"
       id="path104"
       style="fill:#050100;fill-opacity:1;fill-rule:nonzero;stroke:none"
       d="m 28.677,36.493 -1.417,-1.417 -1.417,1.417 1.417,1.417 1.417,-1.417" /><path
       inkscape:connector-curvature="0"
       id="path106"
       style="fill:#050100;fill-opacity:1;fill-rule:nonzero;stroke:none"
       d="m 35.83,44.492 -1.417,-1.417 -1.417,1.417 1.417,1.417 1.417,-1.417" /><path
       inkscape:connector-curvature="0"
       id="path108"
       style="fill:#050100;fill-opacity:1;fill-rule:nonzero;stroke:none"
       d="m 46.876,55.888 -1.417,-1.417 -1.417,1.417 1.417,1.417 1.417,-1.417" /><path
       inkscape:connector-curvature="0"
       id="path110"
       style="fill:#050100;fill-opacity:1;fill-rule:nonzero;stroke:none"
       d="m 55.713,65.518 -1.417,-1.418 -1.417,1.418 1.417,1.417 1.417,-1.417" /><path
       inkscape:connector-curvature="0"
       id="path112"
       style="fill:#050100;fill-opacity:1;fill-rule:nonzero;stroke:none"
       d="m 69.751,79.833 -1.417,-1.418 -1.418,1.418 1.418,1.417 1.417,-1.417" /><path
       inkscape:connector-curvature="0"
       id="path114"
       style="fill:#050100;fill-opacity:1;fill-rule:nonzero;stroke:none"
       d="m 91.308,99.572 -1.417,-1.418 -1.417,1.418 1.417,1.417 1.417,-1.417" /><path
       inkscape:connector-curvature="0"
       id="path116"
       style="fill:#050100;fill-opacity:1;fill-rule:nonzero;stroke:none"
       d="m 137.373,141.2 -1.417,-1.418 -1.417,1.418 1.417,1.417 1.417,-1.417" /><path
       inkscape:connector-curvature="0"
       id="path118"
       style="fill:#050100;fill-opacity:1;fill-rule:nonzero;stroke:none"
       d="m 169.817,166.26 -1.418,-1.417 -1.417,1.417 1.417,1.418 1.418,-1.418" /><path
       inkscape:connector-curvature="0"
       id="path120"
       style="fill:#050100;fill-opacity:1;fill-rule:nonzero;stroke:none"
       d="m 193.787,180.643 -1.418,-1.417 -1.417,1.417 1.417,1.418 1.418,-1.418" /><path
       inkscape:connector-curvature="0"
       id="path122"
       style="fill:#050100;fill-opacity:1;fill-rule:nonzero;stroke:none"
       d="m 226.151,190.638 -1.417,-1.417 -1.418,1.417 1.418,1.417 1.417,-1.417" /><path
       inkscape:connector-curvature="0"
       id="path124"
       style="fill:#050100;fill-opacity:1;fill-rule:nonzero;stroke:none"
       d="m 271.356,186.845 -1.417,-1.417 -1.418,1.417 1.418,1.418 1.417,-1.418" /><path
       inkscape:connector-curvature="0"
       id="path126"
       style="fill:none;stroke:#221f1f;stroke-width:0.5;stroke-linecap:butt;stroke-linejoin:miter;stroke-miterlimit:4;stroke-opacity:1;stroke-dasharray:none"
       d="m 271.356,187.76 -1.417,-1.417 -1.418,1.417 1.418,1.417 z"
       sodipodi:nodetypes="ccccc" /><text
       transform="scale(1.00005,-0.99995)"
       id="text188"
       x="12.578052"
       y="-15.944798"
       style="font-size:12.00059986px"><tspan
         style="font-size:6.00089979px;font-variant:normal;font-weight:normal;writing-mode:lr-tb;fill:#221f1f;fill-opacity:1;fill-rule:nonzero;stroke:none;font-family:Times;-inkscape-font-specification:TimesNewRomanPSMT"
         x="12.578052 15.500489 18.422928 21.009315"
         y="-15.944798"
         sodipodi:role="line"
         id="tspan190">80cm</tspan><tspan
         style="font-size:6.00089979px;font-variant:normal;font-weight:normal;writing-mode:lr-tb;fill:#221f1f;fill-opacity:1;fill-rule:nonzero;stroke:none;font-family:Times;-inkscape-font-specification:TimesNewRomanPSMT"
         x="11.576051 14.498489 17.420927 20.007315"
         y="-36.113823"
         sodipodi:role="line"
         id="tspan192">50cm</tspan><tspan
         style="font-size:6.00089979px;font-variant:normal;font-weight:normal;writing-mode:lr-tb;fill:#221f1f;fill-opacity:1;fill-rule:nonzero;stroke:none;font-family:Times;-inkscape-font-specification:TimesNewRomanPSMT"
         x="37.577751 40.500191 43.422626 46.009014"
         y="-39.94838"
         sodipodi:role="line"
         id="tspan194">40cm</tspan><tspan
         style="font-size:6.00089979px;font-variant:normal;font-weight:normal;writing-mode:lr-tb;fill:#221f1f;fill-opacity:1;fill-rule:nonzero;stroke:none;font-family:Times;-inkscape-font-specification:TimesNewRomanPSMT"
         x="45.913322 48.835758 51.758198 54.344585"
         y="-49.615849"
         sodipodi:role="line"
         id="tspan196">30cm</tspan><tspan
         style="font-size:6.00089979px;font-variant:normal;font-weight:normal;writing-mode:lr-tb;fill:#221f1f;fill-opacity:1;fill-rule:nonzero;stroke:none;font-family:Times;-inkscape-font-specification:TimesNewRomanPSMT"
         x="40.080215 43.002655 45.925095 48.511482"
         y="-68.116318"
         sodipodi:role="line"
         id="tspan198">25cm</tspan><tspan
         style="font-size:6.00089979px;font-variant:normal;font-weight:normal;writing-mode:lr-tb;fill:#221f1f;fill-opacity:1;fill-rule:nonzero;stroke:none;font-family:Times;-inkscape-font-specification:TimesNewRomanPSMT"
         x="70.750916 73.673355 76.595795 79.182182"
         y="-74.285606"
         sodipodi:role="line"
         id="tspan200">20cm</tspan><tspan
         style="font-size:6.00089979px;font-variant:normal;font-weight:normal;writing-mode:lr-tb;fill:#221f1f;fill-opacity:1;fill-rule:nonzero;stroke:none;font-family:Times;-inkscape-font-specification:TimesNewRomanPSMT"
         x="90.422165 93.344604 96.267044 98.853432"
         y="-92.95401"
         sodipodi:role="line"
         id="tspan202">15cm</tspan><tspan
         style="font-size:6.00089979px;font-variant:normal;font-weight:normal;writing-mode:lr-tb;fill:#221f1f;fill-opacity:1;fill-rule:nonzero;stroke:none;font-family:Times;-inkscape-font-specification:TimesNewRomanPSMT"
         x="137.75737 140.67981 143.60223 146.18863"
         y="-135.29665"
         sodipodi:role="line"
         id="tspan204">10cm</tspan><tspan
         style="font-size:6.00089979px;font-variant:normal;font-weight:normal;writing-mode:lr-tb;fill:#221f1f;fill-opacity:1;fill-rule:nonzero;stroke:none;font-family:Times;-inkscape-font-specification:TimesNewRomanPSMT"
         x="168.09212 171.01456 173.60095"
         y="-159.13223"
         sodipodi:role="line"
         id="tspan206">8cm</tspan><tspan
         style="font-size:6.00089979px;font-variant:normal;font-weight:normal;writing-mode:lr-tb;fill:#221f1f;fill-opacity:1;fill-rule:nonzero;stroke:none;font-family:Times;-inkscape-font-specification:TimesNewRomanPSMT"
         x="189.76117 192.68359 195.26999"
         y="-173.13203"
         sodipodi:role="line"
         id="tspan208">7cm</tspan><tspan
         style="font-size:6.00089979px;font-variant:normal;font-weight:normal;writing-mode:lr-tb;fill:#221f1f;fill-opacity:1;fill-rule:nonzero;stroke:none;font-family:Times;-inkscape-font-specification:TimesNewRomanPSMT"
         x="220.92995 223.85237 226.43877"
         y="-194.47153"
         sodipodi:role="line"
         id="tspan210">6cm</tspan><tspan
         style="font-size:6.00089979px;font-variant:normal;font-weight:normal;writing-mode:lr-tb;fill:#221f1f;fill-opacity:1;fill-rule:nonzero;stroke:none;font-family:Times;-inkscape-font-specification:TimesNewRomanPSMT"
         x="259.43179 262.35425 264.94064"
         y="-190.80496"
         sodipodi:role="line"
         id="tspan212">5cm</tspan></text>
<path
       style="fill:none;stroke:#000000;stroke-width:0.0008;stroke-linecap:butt;stroke-linejoin:miter;stroke-miterlimit:4;stroke-opacity:1;stroke-dasharray:none"
       d="m 21.2,-21.88752 0,-5.02496"
       id="path4041"
       inkscape:connector-curvature="0" /><path
       inkscape:connector-curvature="0"
       id="path4043"
       d="m 23.71248,-24.4 -5.02496,0"
       style="fill:none;stroke:#000000;stroke-width:0.0008;stroke-linecap:butt;stroke-linejoin:miter;stroke-miterlimit:4;stroke-opacity:1;stroke-dasharray:none" /><path
       d="m 225.847,189.588 -1.417,-1.418 -1.417,1.418 1.417,1.417 z"
       style="fill:none;stroke:#221f1f;stroke-width:0.5;stroke-linecap:butt;stroke-linejoin:miter;stroke-miterlimit:4;stroke-opacity:1;stroke-dasharray:none"
       id="path4045"
       inkscape:connector-curvature="0"
       sodipodi:nodetypes="ccccc" /><path
       sodipodi:type="arc"
       style="fill:none;stroke:#000000;stroke-width:5.13869953;stroke-opacity:1"
       id="path4047"
       sodipodi:cx="26.5"
       sodipodi:cy="1083"
       sodipodi:rx="21.5"
       sodipodi:ry="21.5"
       d="m 48,1083 a 21.5,21.5 0 1 1 -43,0 21.5,21.5 0 1 1 43,0 z"
       transform="matrix(0.15568141,0,0,-0.15568141,17.074443,144.20297)" /></g></svg>